<svg xmlns="http://www.w3.org/2000/svg" xmlns:xlink="http://www.w3.org/1999/xlink" width="1920" zoomAndPan="magnify" viewBox="0 0 1440 809.999993" height="1080" preserveAspectRatio="xMidYMid meet" version="1.0"><defs><clipPath id="4bda4c18f5"><path d="M 577 255 L 876.21875 255 L 876.21875 556 L 577 556 Z M 577 255 " clip-rule="nonzero"/></clipPath><clipPath id="3eed2a3a9e"><path d="M 577 255 L 876.21875 255 L 876.21875 556 L 577 556 Z M 577 255 " clip-rule="nonzero"/></clipPath></defs><g clip-path="url(#4bda4c18f5)"><path fill="#7054ff" d="M 876.300781 405.367188 C 876.300781 409.070312 876.164062 412.765625 875.890625 416.457031 C 875.617188 420.148438 875.207031 423.824219 874.664062 427.484375 C 874.117188 431.148438 873.4375 434.78125 872.621094 438.394531 C 871.808594 442.003906 870.859375 445.578125 869.78125 449.117188 C 868.703125 452.660156 867.492188 456.15625 866.152344 459.605469 C 864.816406 463.054688 863.351562 466.453125 861.761719 469.792969 C 860.171875 473.136719 858.460938 476.414062 856.625 479.628906 C 854.792969 482.84375 852.84375 485.984375 850.777344 489.054688 C 848.714844 492.125 846.539062 495.113281 844.25 498.023438 C 841.964844 500.933594 839.570312 503.75 837.074219 506.484375 C 834.578125 509.214844 831.988281 511.847656 829.296875 514.386719 C 826.605469 516.925781 823.824219 519.363281 820.953125 521.695312 C 818.082031 524.027344 815.125 526.25 812.089844 528.363281 C 809.054688 530.472656 805.945312 532.472656 802.761719 534.355469 C 799.578125 536.238281 796.328125 538 793.011719 539.640625 C 789.699219 541.28125 786.328125 542.796875 782.902344 544.1875 C 779.472656 545.578125 776 546.839844 772.480469 547.972656 C 768.960938 549.105469 765.402344 550.109375 761.808594 550.976562 C 758.214844 551.847656 754.59375 552.582031 750.945312 553.183594 C 747.292969 553.78125 743.628906 554.246094 739.945312 554.574219 C 736.261719 554.902344 732.570312 555.09375 728.875 555.148438 C 725.175781 555.203125 721.484375 555.121094 717.792969 554.902344 C 714.101562 554.683594 710.421875 554.324219 706.757812 553.832031 C 703.09375 553.339844 699.449219 552.714844 695.832031 551.949219 C 692.214844 551.1875 688.628906 550.292969 685.078125 549.261719 C 681.523438 548.234375 678.015625 547.074219 674.550781 545.785156 C 671.082031 544.496094 667.667969 543.078125 664.308594 541.535156 C 660.945312 539.992188 657.648438 538.328125 654.410156 536.542969 C 651.171875 534.753906 648.003906 532.847656 644.90625 530.824219 C 641.808594 528.804688 638.792969 526.667969 635.851562 524.421875 C 632.914062 522.175781 630.0625 519.824219 627.296875 517.363281 C 624.53125 514.90625 621.863281 512.347656 619.289062 509.691406 C 617.164062 507.503906 615.109375 505.25 613.121094 502.933594 C 611.132812 500.617188 609.21875 498.242188 607.378906 495.808594 C 605.535156 493.375 603.769531 490.886719 602.082031 488.34375 C 600.390625 485.804688 598.78125 483.210938 597.25 480.570312 C 595.71875 477.929688 594.265625 475.246094 592.898438 472.519531 C 591.53125 469.789062 590.25 467.019531 589.050781 464.210938 C 587.851562 461.40625 586.742188 458.5625 585.714844 455.6875 C 584.691406 452.8125 583.753906 449.910156 582.90625 446.976562 C 582.058594 444.042969 581.304688 441.085938 580.636719 438.109375 C 579.96875 435.128906 579.394531 432.132812 578.910156 429.117188 C 578.425781 426.101562 578.035156 423.078125 577.734375 420.039062 C 577.4375 417 577.230469 413.953125 577.117188 410.902344 C 577.003906 407.851562 576.984375 404.800781 577.058594 401.75 C 577.132812 398.695312 577.300781 395.648438 577.558594 392.609375 C 577.820312 389.566406 578.171875 386.535156 578.617188 383.515625 C 579.058594 380.492188 579.597656 377.488281 580.226562 374.503906 C 580.851562 371.515625 581.574219 368.550781 582.382812 365.605469 C 583.191406 362.660156 584.089844 359.746094 585.078125 356.855469 C 586.066406 353.96875 587.140625 351.113281 588.300781 348.289062 C 589.464844 345.46875 590.710938 342.683594 592.042969 339.9375 C 593.375 337.191406 594.789062 334.488281 596.289062 331.828125 C 597.785156 329.167969 599.363281 326.554688 601.019531 323.992188 C 602.675781 321.429688 604.410156 318.917969 606.21875 316.460938 C 608.03125 314.003906 609.914062 311.605469 611.871094 309.261719 C 613.828125 306.921875 615.851562 304.640625 617.949219 302.421875 C 620.046875 300.203125 622.207031 298.050781 624.433594 295.96875 C 626.660156 293.882812 628.949219 291.867188 631.300781 289.921875 C 633.652344 287.976562 636.058594 286.101562 638.523438 284.304688 C 640.988281 282.507812 643.507812 280.785156 646.078125 279.140625 C 648.648438 277.496094 651.265625 275.933594 653.929688 274.449219 C 656.597656 272.964844 659.304688 271.566406 662.058594 270.246094 C 664.808594 268.929688 667.597656 267.695312 670.421875 266.550781 C 673.25 265.402344 676.109375 264.339844 679 263.371094 C 681.890625 262.398438 684.808594 261.515625 687.753906 260.71875 C 690.699219 259.925781 693.667969 259.222656 696.65625 258.613281 C 699.644531 258 702.648438 257.480469 705.667969 257.050781 C 708.6875 256.621094 711.71875 256.289062 714.757812 256.042969 C 717.796875 255.800781 720.84375 255.652344 723.894531 255.59375 C 726.941406 255.539062 729.992188 255.574219 733.039062 255.707031 C 736.085938 255.835938 739.125 256.058594 742.160156 256.375 C 745.195312 256.691406 748.214844 257.101562 751.222656 257.601562 C 754.230469 258.101562 757.222656 258.695312 760.195312 259.378906 C 763.167969 260.0625 766.117188 260.839844 769.042969 261.703125 C 771.96875 262.566406 774.863281 263.523438 777.730469 264.5625 C 780.597656 265.605469 783.429688 266.734375 786.226562 267.949219 C 789.027344 269.164062 791.785156 270.464844 794.503906 271.847656 C 797.222656 273.234375 799.894531 274.699219 802.523438 276.246094 C 805.152344 277.796875 807.730469 279.421875 810.261719 281.128906 C 812.792969 282.832031 815.265625 284.613281 817.6875 286.472656 C 820.109375 288.328125 822.46875 290.257812 824.773438 292.261719 C 827.078125 294.261719 829.316406 296.332031 831.492188 298.472656 C 833.667969 300.609375 835.777344 302.8125 837.820312 305.082031 C 839.863281 307.351562 841.832031 309.679688 843.734375 312.066406 C 845.632812 314.457031 847.457031 316.898438 849.207031 319.398438 C 850.957031 321.898438 852.628906 324.453125 854.226562 327.054688 C 855.820312 329.65625 857.332031 332.304688 858.765625 335 C 860.199219 337.695312 861.546875 340.433594 862.8125 343.210938 C 864.078125 345.988281 865.257812 348.804688 866.351562 351.652344 C 867.445312 354.503906 868.449219 357.382812 869.367188 360.296875 C 870.285156 363.207031 871.113281 366.144531 871.851562 369.105469 C 872.589844 372.070312 873.238281 375.050781 873.792969 378.054688 C 874.347656 381.054688 874.8125 384.070312 875.183594 387.101562 C 875.558594 390.132812 875.835938 393.171875 876.023438 396.21875 C 876.207031 399.265625 876.300781 402.316406 876.300781 405.367188 Z M 876.300781 405.367188 " fill-opacity="1" fill-rule="nonzero"/></g><path fill="#ffffff" d="M 834.125 509.691406 C 832.386719 511.484375 830.601562 513.234375 828.777344 514.9375 C 826.949219 516.640625 825.082031 518.296875 823.171875 519.910156 C 821.265625 521.519531 819.316406 523.082031 817.328125 524.59375 C 815.34375 526.105469 813.320312 527.566406 811.257812 528.980469 C 809.199219 530.390625 807.105469 531.75 804.976562 533.054688 C 802.847656 534.363281 800.6875 535.613281 798.5 536.8125 C 796.308594 538.011719 794.089844 539.152344 791.839844 540.242188 C 789.59375 541.328125 787.320312 542.359375 785.019531 543.332031 C 782.722656 544.304688 780.398438 545.21875 778.054688 546.078125 C 775.710938 546.933594 773.34375 547.730469 770.960938 548.46875 C 768.574219 549.207031 766.171875 549.886719 763.753906 550.503906 C 761.335938 551.125 758.902344 551.683594 756.457031 552.179688 C 754.007812 552.675781 751.550781 553.109375 749.082031 553.484375 C 746.617188 553.855469 744.140625 554.167969 741.65625 554.417969 C 739.171875 554.667969 736.683594 554.855469 734.191406 554.980469 C 731.695312 555.105469 729.203125 555.167969 726.707031 555.167969 C 724.207031 555.167969 721.714844 555.105469 719.222656 554.980469 C 716.726562 554.855469 714.238281 554.667969 711.753906 554.417969 C 709.269531 554.167969 706.796875 553.855469 704.328125 553.484375 C 701.859375 553.109375 699.402344 552.675781 696.953125 552.179688 C 694.507812 551.683594 692.074219 551.125 689.65625 550.503906 C 687.238281 549.886719 684.835938 549.207031 682.449219 548.46875 C 680.066406 547.730469 677.703125 546.933594 675.355469 546.078125 C 673.011719 545.21875 670.6875 544.304688 668.390625 543.332031 C 666.089844 542.359375 663.816406 541.328125 661.570312 540.242188 C 659.320312 539.152344 657.101562 538.011719 654.914062 536.8125 C 652.722656 535.613281 650.5625 534.363281 648.433594 533.054688 C 646.304688 531.75 644.210938 530.390625 642.152344 528.980469 C 640.09375 527.566406 638.066406 526.105469 636.082031 524.59375 C 634.09375 523.082031 632.144531 521.519531 630.238281 519.910156 C 628.328125 518.296875 626.460938 516.640625 624.632812 514.9375 C 622.808594 513.234375 621.027344 511.484375 619.285156 509.691406 C 620.394531 507.070312 621.597656 504.488281 622.894531 501.953125 C 624.191406 499.417969 625.578125 496.929688 627.054688 494.496094 C 628.535156 492.0625 630.097656 489.683594 631.75 487.363281 C 633.402344 485.046875 635.136719 482.789062 636.957031 480.597656 C 638.773438 478.402344 640.667969 476.28125 642.640625 474.226562 C 644.613281 472.171875 646.660156 470.195312 648.777344 468.289062 C 650.894531 466.386719 653.078125 464.5625 655.328125 462.820312 C 657.578125 461.074219 659.890625 459.417969 662.261719 457.84375 C 664.632812 456.269531 667.0625 454.78125 669.542969 453.386719 C 672.023438 451.988281 674.550781 450.683594 677.125 449.472656 C 679.703125 448.261719 682.320312 447.148438 684.976562 446.128906 C 687.636719 445.109375 690.328125 444.1875 693.050781 443.367188 C 695.777344 442.542969 698.527344 441.824219 701.304688 441.203125 C 704.085938 440.582031 706.882812 440.0625 709.695312 439.648438 C 712.511719 439.230469 715.339844 438.921875 718.179688 438.710938 C 721.015625 438.503906 723.859375 438.398438 726.707031 438.398438 C 729.550781 438.398438 732.394531 438.503906 735.234375 438.710938 C 738.070312 438.921875 740.898438 439.230469 743.714844 439.648438 C 746.53125 440.0625 749.328125 440.582031 752.105469 441.203125 C 754.882812 441.824219 757.632812 442.542969 760.359375 443.367188 C 763.082031 444.1875 765.773438 445.109375 768.433594 446.128906 C 771.089844 447.148438 773.707031 448.261719 776.285156 449.472656 C 778.859375 450.683594 781.386719 451.988281 783.871094 453.386719 C 786.351562 454.78125 788.777344 456.269531 791.148438 457.84375 C 793.519531 459.417969 795.832031 461.074219 798.082031 462.820312 C 800.332031 464.5625 802.519531 466.386719 804.636719 468.289062 C 806.753906 470.195312 808.796875 472.171875 810.769531 474.226562 C 812.742188 476.28125 814.636719 478.402344 816.453125 480.597656 C 818.273438 482.789062 820.007812 485.046875 821.660156 487.363281 C 823.3125 489.683594 824.875 492.0625 826.355469 494.496094 C 827.832031 496.929688 829.222656 499.417969 830.515625 501.953125 C 831.8125 504.488281 833.015625 507.070312 834.125 509.691406 Z M 834.125 509.691406 " fill-opacity="1" fill-rule="nonzero"/><path fill="#ff9561" d="M 726.648438 405.347656 C 727.335938 405.347656 728.023438 405.378906 728.710938 405.449219 C 729.398438 405.515625 730.078125 405.617188 730.757812 405.75 C 731.433594 405.886719 732.101562 406.054688 732.761719 406.253906 C 733.421875 406.453125 734.070312 406.6875 734.707031 406.949219 C 735.347656 407.214844 735.96875 407.511719 736.578125 407.835938 C 737.1875 408.160156 737.777344 408.515625 738.351562 408.898438 C 738.925781 409.285156 739.480469 409.695312 740.011719 410.132812 C 740.546875 410.570312 741.054688 411.035156 741.542969 411.523438 C 742.03125 412.011719 742.496094 412.523438 742.933594 413.054688 C 743.371094 413.589844 743.78125 414.144531 744.164062 414.71875 C 744.546875 415.292969 744.902344 415.882812 745.226562 416.492188 C 745.550781 417.101562 745.847656 417.726562 746.109375 418.363281 C 746.375 419.003906 746.605469 419.652344 746.808594 420.3125 C 747.007812 420.972656 747.175781 421.644531 747.308594 422.320312 C 747.445312 422.996094 747.546875 423.679688 747.613281 424.367188 C 747.679688 425.054688 747.714844 425.742188 747.714844 426.433594 L 747.714844 445.035156 C 747.714844 445.726562 747.679688 446.414062 747.613281 447.101562 C 747.546875 447.789062 747.445312 448.472656 747.308594 449.148438 C 747.175781 449.828125 747.007812 450.496094 746.808594 451.15625 C 746.605469 451.816406 746.375 452.46875 746.109375 453.105469 C 745.847656 453.742188 745.550781 454.367188 745.226562 454.976562 C 744.902344 455.585938 744.546875 456.175781 744.164062 456.75 C 743.78125 457.324219 743.371094 457.878906 742.933594 458.414062 C 742.496094 458.945312 742.03125 459.457031 741.542969 459.945312 C 741.054688 460.433594 740.546875 460.898438 740.011719 461.335938 C 739.480469 461.773438 738.925781 462.183594 738.351562 462.570312 C 737.777344 462.953125 737.1875 463.308594 736.578125 463.632812 C 735.96875 463.957031 735.347656 464.253906 734.707031 464.519531 C 734.070312 464.78125 733.421875 465.015625 732.761719 465.214844 C 732.101562 465.414062 731.433594 465.582031 730.757812 465.71875 C 730.078125 465.851562 729.398438 465.953125 728.710938 466.023438 C 728.023438 466.089844 727.335938 466.125 726.648438 466.125 C 725.957031 466.125 725.269531 466.089844 724.582031 466.023438 C 723.894531 465.953125 723.214844 465.851562 722.535156 465.71875 C 721.859375 465.582031 721.191406 465.414062 720.53125 465.214844 C 719.871094 465.015625 719.222656 464.78125 718.585938 464.519531 C 717.945312 464.253906 717.324219 463.957031 716.714844 463.632812 C 716.105469 463.308594 715.515625 462.953125 714.941406 462.570312 C 714.367188 462.183594 713.816406 461.773438 713.28125 461.335938 C 712.746094 460.898438 712.238281 460.433594 711.75 459.945312 C 711.261719 459.457031 710.796875 458.945312 710.359375 458.414062 C 709.921875 457.878906 709.511719 457.324219 709.128906 456.75 C 708.746094 456.175781 708.390625 455.585938 708.066406 454.976562 C 707.742188 454.367188 707.445312 453.742188 707.183594 453.105469 C 706.917969 452.46875 706.6875 451.816406 706.484375 451.15625 C 706.285156 450.496094 706.117188 449.828125 705.984375 449.148438 C 705.847656 448.472656 705.746094 447.789062 705.679688 447.101562 C 705.613281 446.414062 705.578125 445.726562 705.578125 445.035156 L 705.578125 426.433594 C 705.578125 425.742188 705.613281 425.054688 705.679688 424.367188 C 705.746094 423.679688 705.847656 422.996094 705.984375 422.320312 C 706.117188 421.644531 706.285156 420.972656 706.484375 420.3125 C 706.6875 419.652344 706.917969 419.003906 707.183594 418.363281 C 707.445312 417.726562 707.742188 417.101562 708.066406 416.492188 C 708.390625 415.882812 708.746094 415.292969 709.128906 414.71875 C 709.511719 414.144531 709.921875 413.589844 710.359375 413.054688 C 710.796875 412.523438 711.261719 412.011719 711.75 411.523438 C 712.238281 411.035156 712.746094 410.570312 713.28125 410.132812 C 713.816406 409.695312 714.367188 409.285156 714.941406 408.898438 C 715.515625 408.515625 716.105469 408.160156 716.714844 407.835938 C 717.324219 407.511719 717.945312 407.214844 718.585938 406.949219 C 719.222656 406.6875 719.871094 406.453125 720.53125 406.253906 C 721.191406 406.054688 721.859375 405.886719 722.535156 405.75 C 723.214844 405.617188 723.894531 405.515625 724.582031 405.449219 C 725.269531 405.378906 725.957031 405.347656 726.648438 405.347656 Z M 726.648438 405.347656 " fill-opacity="1" fill-rule="nonzero"/><path fill="#002c5c" d="M 681.28125 405.347656 C 642.769531 386.601562 645.640625 329.976562 672.152344 322.167969 C 675.316406 298.09375 743.671875 284.367188 777.425781 305.484375 C 811.179688 326.601562 801.054688 383.617188 774.46875 389.316406 " fill-opacity="1" fill-rule="nonzero"/><path fill="#ff9561" d="M 688.246094 392.066406 C 688.246094 392.941406 688.160156 393.804688 687.992188 394.664062 C 687.820312 395.519531 687.570312 396.351562 687.234375 397.15625 C 686.902344 397.964844 686.492188 398.730469 686.007812 399.457031 C 685.523438 400.183594 684.972656 400.855469 684.355469 401.472656 C 683.738281 402.089844 683.066406 402.640625 682.34375 403.125 C 681.617188 403.609375 680.851562 404.019531 680.042969 404.355469 C 679.238281 404.6875 678.40625 404.941406 677.550781 405.113281 C 676.695312 405.28125 675.832031 405.367188 674.960938 405.367188 C 674.089844 405.367188 673.222656 405.28125 672.367188 405.113281 C 671.511719 404.941406 670.683594 404.6875 669.875 404.355469 C 669.070312 404.019531 668.304688 403.609375 667.578125 403.125 C 666.855469 402.640625 666.183594 402.089844 665.566406 401.472656 C 664.949219 400.855469 664.398438 400.183594 663.914062 399.457031 C 663.429688 398.730469 663.019531 397.964844 662.6875 397.15625 C 662.351562 396.351562 662.101562 395.519531 661.929688 394.664062 C 661.761719 393.804688 661.675781 392.941406 661.675781 392.066406 C 661.675781 391.195312 661.761719 390.332031 661.929688 389.472656 C 662.101562 388.617188 662.351562 387.785156 662.6875 386.980469 C 663.019531 386.171875 663.429688 385.40625 663.914062 384.679688 C 664.398438 383.953125 664.949219 383.28125 665.566406 382.664062 C 666.183594 382.046875 666.855469 381.496094 667.578125 381.011719 C 668.304688 380.527344 669.070312 380.117188 669.875 379.78125 C 670.683594 379.449219 671.511719 379.195312 672.367188 379.023438 C 673.222656 378.855469 674.089844 378.769531 674.960938 378.769531 C 675.832031 378.769531 676.695312 378.855469 677.550781 379.023438 C 678.40625 379.195312 679.238281 379.449219 680.042969 379.78125 C 680.851562 380.117188 681.617188 380.527344 682.34375 381.011719 C 683.066406 381.496094 683.738281 382.046875 684.355469 382.664062 C 684.972656 383.28125 685.523438 383.953125 686.007812 384.679688 C 686.492188 385.40625 686.902344 386.171875 687.234375 386.980469 C 687.570312 387.785156 687.820312 388.617188 687.992188 389.472656 C 688.160156 390.332031 688.246094 391.195312 688.246094 392.066406 Z M 688.246094 392.066406 " fill-opacity="1" fill-rule="nonzero"/><path fill="#ff9561" d="M 790.382812 392.066406 C 790.382812 392.941406 790.296875 393.804688 790.125 394.664062 C 789.957031 395.519531 789.703125 396.351562 789.371094 397.15625 C 789.035156 397.964844 788.628906 398.730469 788.140625 399.457031 C 787.65625 400.183594 787.105469 400.855469 786.488281 401.472656 C 785.875 402.089844 785.203125 402.640625 784.476562 403.125 C 783.75 403.609375 782.984375 404.019531 782.179688 404.355469 C 781.375 404.6875 780.542969 404.941406 779.6875 405.113281 C 778.832031 405.28125 777.96875 405.367188 777.097656 405.367188 C 776.222656 405.367188 775.359375 405.28125 774.503906 405.113281 C 773.648438 404.941406 772.816406 404.6875 772.011719 404.355469 C 771.207031 404.019531 770.441406 403.609375 769.714844 403.125 C 768.988281 402.640625 768.316406 402.089844 767.703125 401.472656 C 767.085938 400.855469 766.535156 400.183594 766.050781 399.457031 C 765.5625 398.730469 765.15625 397.964844 764.820312 397.15625 C 764.488281 396.351562 764.234375 395.519531 764.066406 394.664062 C 763.894531 393.804688 763.808594 392.941406 763.808594 392.066406 C 763.808594 391.195312 763.894531 390.332031 764.066406 389.472656 C 764.234375 388.617188 764.488281 387.785156 764.820312 386.980469 C 765.15625 386.171875 765.5625 385.40625 766.050781 384.679688 C 766.535156 383.953125 767.085938 383.28125 767.703125 382.664062 C 768.316406 382.046875 768.988281 381.496094 769.714844 381.011719 C 770.441406 380.527344 771.207031 380.117188 772.011719 379.78125 C 772.816406 379.449219 773.648438 379.195312 774.503906 379.023438 C 775.359375 378.855469 776.222656 378.769531 777.097656 378.769531 C 777.96875 378.769531 778.832031 378.855469 779.6875 379.023438 C 780.542969 379.195312 781.375 379.449219 782.179688 379.78125 C 782.984375 380.117188 783.75 380.527344 784.476562 381.011719 C 785.203125 381.496094 785.875 382.046875 786.488281 382.664062 C 787.105469 383.28125 787.65625 383.953125 788.140625 384.679688 C 788.628906 385.40625 789.035156 386.171875 789.371094 386.980469 C 789.703125 387.785156 789.957031 388.617188 790.125 389.472656 C 790.296875 390.332031 790.382812 391.195312 790.382812 392.066406 Z M 790.382812 392.066406 " fill-opacity="1" fill-rule="nonzero"/><path fill="#ffc9ac" d="M 726.703125 321.417969 C 728.398438 321.417969 730.089844 321.503906 731.777344 321.667969 C 733.460938 321.835938 735.136719 322.085938 736.800781 322.414062 C 738.460938 322.746094 740.101562 323.15625 741.726562 323.648438 C 743.347656 324.140625 744.941406 324.714844 746.507812 325.363281 C 748.070312 326.011719 749.601562 326.734375 751.097656 327.535156 C 752.589844 328.335938 754.042969 329.207031 755.453125 330.148438 C 756.859375 331.089844 758.21875 332.101562 759.53125 333.175781 C 760.839844 334.253906 762.09375 335.390625 763.292969 336.589844 C 764.492188 337.789062 765.628906 339.046875 766.703125 340.355469 C 767.777344 341.667969 768.785156 343.027344 769.726562 344.4375 C 770.667969 345.847656 771.539062 347.304688 772.339844 348.800781 C 773.136719 350.292969 773.859375 351.828125 774.507812 353.394531 C 775.15625 354.960938 775.726562 356.554688 776.21875 358.179688 C 776.710938 359.804688 777.125 361.445312 777.453125 363.109375 C 777.785156 364.773438 778.03125 366.449219 778.199219 368.136719 C 778.367188 369.828125 778.449219 371.519531 778.449219 373.214844 L 778.449219 386.601562 C 778.449219 388.300781 778.367188 389.992188 778.199219 391.679688 C 778.03125 393.367188 777.785156 395.042969 777.453125 396.707031 C 777.125 398.371094 776.710938 400.015625 776.21875 401.636719 C 775.726562 403.261719 775.15625 404.855469 774.507812 406.425781 C 773.859375 407.992188 773.136719 409.523438 772.339844 411.019531 C 771.539062 412.515625 770.667969 413.96875 769.726562 415.378906 C 768.785156 416.789062 767.777344 418.152344 766.703125 419.460938 C 765.628906 420.773438 764.492188 422.027344 763.292969 423.226562 C 762.09375 424.425781 760.839844 425.566406 759.53125 426.640625 C 758.21875 427.71875 756.859375 428.726562 755.453125 429.667969 C 754.042969 430.613281 752.589844 431.484375 751.097656 432.28125 C 749.601562 433.082031 748.070312 433.804688 746.507812 434.457031 C 744.941406 435.105469 743.347656 435.675781 741.726562 436.167969 C 740.101562 436.660156 738.460938 437.074219 736.800781 437.402344 C 735.136719 437.734375 733.460938 437.984375 731.777344 438.148438 C 730.089844 438.316406 728.398438 438.398438 726.703125 438.398438 C 725.011719 438.398438 723.320312 438.316406 721.632812 438.148438 C 719.945312 437.984375 718.273438 437.734375 716.609375 437.402344 C 714.949219 437.074219 713.304688 436.660156 711.683594 436.167969 C 710.0625 435.675781 708.46875 435.105469 706.902344 434.457031 C 705.335938 433.804688 703.808594 433.082031 702.3125 432.28125 C 700.816406 431.484375 699.367188 430.613281 697.957031 429.667969 C 696.546875 428.726562 695.1875 427.71875 693.878906 426.640625 C 692.570312 425.566406 691.3125 424.425781 690.117188 423.226562 C 688.917969 422.027344 687.78125 420.773438 686.707031 419.460938 C 685.632812 418.152344 684.621094 416.789062 683.679688 415.378906 C 682.738281 413.96875 681.871094 412.515625 681.070312 411.019531 C 680.273438 409.523438 679.546875 407.992188 678.898438 406.425781 C 678.25 404.855469 677.679688 403.261719 677.1875 401.636719 C 676.695312 400.015625 676.285156 398.371094 675.953125 396.707031 C 675.625 395.042969 675.375 393.367188 675.210938 391.679688 C 675.042969 389.992188 674.960938 388.300781 674.960938 386.601562 L 674.960938 373.214844 C 674.960938 371.519531 675.042969 369.828125 675.210938 368.136719 C 675.375 366.449219 675.625 364.773438 675.953125 363.109375 C 676.285156 361.445312 676.695312 359.804688 677.1875 358.179688 C 677.679688 356.554688 678.25 354.960938 678.898438 353.394531 C 679.546875 351.828125 680.273438 350.292969 681.070312 348.800781 C 681.871094 347.304688 682.738281 345.847656 683.679688 344.4375 C 684.621094 343.027344 685.632812 341.667969 686.707031 340.355469 C 687.78125 339.046875 688.917969 337.789062 690.117188 336.589844 C 691.3125 335.390625 692.570312 334.253906 693.878906 333.175781 C 695.1875 332.101562 696.546875 331.089844 697.957031 330.148438 C 699.367188 329.207031 700.816406 328.335938 702.3125 327.535156 C 703.808594 326.734375 705.335938 326.011719 706.902344 325.363281 C 708.46875 324.714844 710.0625 324.140625 711.683594 323.648438 C 713.304688 323.15625 714.949219 322.746094 716.609375 322.414062 C 718.273438 322.085938 719.945312 321.835938 721.632812 321.667969 C 723.320312 321.503906 725.011719 321.417969 726.703125 321.417969 Z M 726.703125 321.417969 " fill-opacity="1" fill-rule="nonzero"/><path fill="#002c5c" d="M 674.960938 386.601562 C 693.648438 386.601562 697.863281 351.621094 697.863281 351.621094 C 697.863281 351.621094 700.769531 377.640625 778.449219 373.214844 C 778.449219 373.214844 784.164062 337.550781 764.488281 324.890625 C 744.808594 312.226562 693.929688 320.390625 678.46875 336.707031 C 663.007812 353.027344 674.960938 386.601562 674.960938 386.601562 Z M 674.960938 386.601562 " fill-opacity="1" fill-rule="nonzero"/><g clip-path="url(#3eed2a3a9e)"><path fill="#7054ff" d="M 876.300781 405.367188 C 876.300781 409.070312 876.164062 412.765625 875.890625 416.457031 C 875.617188 420.148438 875.207031 423.824219 874.664062 427.484375 C 874.117188 431.148438 873.4375 434.78125 872.621094 438.394531 C 871.808594 442.003906 870.859375 445.578125 869.78125 449.117188 C 868.703125 452.660156 867.492188 456.15625 866.152344 459.605469 C 864.816406 463.054688 863.351562 466.453125 861.761719 469.792969 C 860.171875 473.136719 858.460938 476.414062 856.625 479.628906 C 854.792969 482.84375 852.84375 485.984375 850.777344 489.054688 C 848.714844 492.125 846.539062 495.113281 844.25 498.023438 C 841.964844 500.933594 839.570312 503.75 837.074219 506.484375 C 834.578125 509.214844 831.988281 511.847656 829.296875 514.386719 C 826.605469 516.925781 823.824219 519.363281 820.953125 521.695312 C 818.082031 524.027344 815.125 526.25 812.089844 528.363281 C 809.054688 530.472656 805.945312 532.472656 802.761719 534.355469 C 799.578125 536.238281 796.328125 538 793.011719 539.640625 C 789.699219 541.28125 786.328125 542.796875 782.902344 544.1875 C 779.472656 545.578125 776 546.839844 772.480469 547.972656 C 768.960938 549.105469 765.402344 550.109375 761.808594 550.976562 C 758.214844 551.847656 754.59375 552.582031 750.945312 553.183594 C 747.292969 553.78125 743.628906 554.246094 739.945312 554.574219 C 736.261719 554.902344 732.570312 555.09375 728.875 555.148438 C 725.175781 555.203125 721.484375 555.121094 717.792969 554.902344 C 714.101562 554.683594 710.421875 554.324219 706.757812 553.832031 C 703.09375 553.339844 699.449219 552.714844 695.832031 551.949219 C 692.214844 551.1875 688.628906 550.292969 685.078125 549.261719 C 681.523438 548.234375 678.015625 547.074219 674.550781 545.785156 C 671.082031 544.496094 667.667969 543.078125 664.308594 541.535156 C 660.945312 539.992188 657.648438 538.328125 654.410156 536.542969 C 651.171875 534.753906 648.003906 532.847656 644.90625 530.824219 C 641.808594 528.804688 638.792969 526.667969 635.851562 524.421875 C 632.914062 522.175781 630.0625 519.824219 627.296875 517.363281 C 624.53125 514.90625 621.863281 512.347656 619.289062 509.691406 C 617.164062 507.503906 615.109375 505.25 613.121094 502.933594 C 611.132812 500.617188 609.21875 498.242188 607.378906 495.808594 C 605.535156 493.375 603.769531 490.886719 602.082031 488.34375 C 600.390625 485.804688 598.78125 483.210938 597.25 480.570312 C 595.71875 477.929688 594.265625 475.246094 592.898438 472.519531 C 591.53125 469.789062 590.25 467.019531 589.050781 464.210938 C 587.851562 461.40625 586.742188 458.5625 585.714844 455.6875 C 584.691406 452.8125 583.753906 449.910156 582.90625 446.976562 C 582.058594 444.042969 581.304688 441.085938 580.636719 438.109375 C 579.96875 435.128906 579.394531 432.132812 578.910156 429.117188 C 578.425781 426.101562 578.035156 423.078125 577.734375 420.039062 C 577.4375 417 577.230469 413.953125 577.117188 410.902344 C 577.003906 407.851562 576.984375 404.800781 577.058594 401.75 C 577.132812 398.695312 577.300781 395.648438 577.558594 392.609375 C 577.820312 389.566406 578.171875 386.535156 578.617188 383.515625 C 579.058594 380.492188 579.597656 377.488281 580.226562 374.503906 C 580.851562 371.515625 581.574219 368.550781 582.382812 365.605469 C 583.191406 362.660156 584.089844 359.746094 585.078125 356.855469 C 586.066406 353.96875 587.140625 351.113281 588.300781 348.289062 C 589.464844 345.46875 590.710938 342.683594 592.042969 339.9375 C 593.375 337.191406 594.789062 334.488281 596.289062 331.828125 C 597.785156 329.167969 599.363281 326.554688 601.019531 323.992188 C 602.675781 321.429688 604.410156 318.917969 606.21875 316.460938 C 608.03125 314.003906 609.914062 311.605469 611.871094 309.261719 C 613.828125 306.921875 615.851562 304.640625 617.949219 302.421875 C 620.046875 300.203125 622.207031 298.050781 624.433594 295.96875 C 626.660156 293.882812 628.949219 291.867188 631.300781 289.921875 C 633.652344 287.976562 636.058594 286.101562 638.523438 284.304688 C 640.988281 282.507812 643.507812 280.785156 646.078125 279.140625 C 648.648438 277.496094 651.265625 275.933594 653.929688 274.449219 C 656.597656 272.964844 659.304688 271.566406 662.058594 270.246094 C 664.808594 268.929688 667.597656 267.695312 670.421875 266.550781 C 673.25 265.402344 676.109375 264.339844 679 263.371094 C 681.890625 262.398438 684.808594 261.515625 687.753906 260.71875 C 690.699219 259.925781 693.667969 259.222656 696.65625 258.613281 C 699.644531 258 702.648438 257.480469 705.667969 257.050781 C 708.6875 256.621094 711.71875 256.289062 714.757812 256.042969 C 717.796875 255.800781 720.84375 255.652344 723.894531 255.59375 C 726.941406 255.539062 729.992188 255.574219 733.039062 255.707031 C 736.085938 255.835938 739.125 256.058594 742.160156 256.375 C 745.195312 256.691406 748.214844 257.101562 751.222656 257.601562 C 754.230469 258.101562 757.222656 258.695312 760.195312 259.378906 C 763.167969 260.0625 766.117188 260.839844 769.042969 261.703125 C 771.96875 262.566406 774.863281 263.523438 777.730469 264.5625 C 780.597656 265.605469 783.429688 266.734375 786.226562 267.949219 C 789.027344 269.164062 791.785156 270.464844 794.503906 271.847656 C 797.222656 273.234375 799.894531 274.699219 802.523438 276.246094 C 805.152344 277.796875 807.730469 279.421875 810.261719 281.128906 C 812.792969 282.832031 815.265625 284.613281 817.6875 286.472656 C 820.109375 288.328125 822.46875 290.257812 824.773438 292.261719 C 827.078125 294.261719 829.316406 296.332031 831.492188 298.472656 C 833.667969 300.609375 835.777344 302.8125 837.820312 305.082031 C 839.863281 307.351562 841.832031 309.679688 843.734375 312.066406 C 845.632812 314.457031 847.457031 316.898438 849.207031 319.398438 C 850.957031 321.898438 852.628906 324.453125 854.226562 327.054688 C 855.820312 329.65625 857.332031 332.304688 858.765625 335 C 860.199219 337.695312 861.546875 340.433594 862.8125 343.210938 C 864.078125 345.988281 865.257812 348.804688 866.351562 351.652344 C 867.445312 354.503906 868.449219 357.382812 869.367188 360.296875 C 870.285156 363.207031 871.113281 366.144531 871.851562 369.105469 C 872.589844 372.070312 873.238281 375.050781 873.792969 378.054688 C 874.347656 381.054688 874.8125 384.070312 875.183594 387.101562 C 875.558594 390.132812 875.835938 393.171875 876.023438 396.21875 C 876.207031 399.265625 876.300781 402.316406 876.300781 405.367188 Z M 876.300781 405.367188 " fill-opacity="1" fill-rule="nonzero"/></g><path fill="#ffffff" d="M 834.125 509.691406 C 832.386719 511.484375 830.601562 513.234375 828.777344 514.9375 C 826.949219 516.640625 825.082031 518.296875 823.171875 519.910156 C 821.265625 521.519531 819.316406 523.082031 817.328125 524.59375 C 815.34375 526.105469 813.320312 527.566406 811.257812 528.980469 C 809.199219 530.390625 807.105469 531.75 804.976562 533.054688 C 802.847656 534.363281 800.6875 535.613281 798.5 536.8125 C 796.308594 538.011719 794.089844 539.152344 791.839844 540.242188 C 789.59375 541.328125 787.320312 542.359375 785.019531 543.332031 C 782.722656 544.304688 780.398438 545.21875 778.054688 546.078125 C 775.710938 546.933594 773.34375 547.730469 770.960938 548.46875 C 768.574219 549.207031 766.171875 549.886719 763.753906 550.503906 C 761.335938 551.125 758.902344 551.683594 756.457031 552.179688 C 754.007812 552.675781 751.550781 553.109375 749.082031 553.484375 C 746.617188 553.855469 744.140625 554.167969 741.65625 554.417969 C 739.171875 554.667969 736.683594 554.855469 734.191406 554.980469 C 731.695312 555.105469 729.203125 555.167969 726.707031 555.167969 C 724.207031 555.167969 721.714844 555.105469 719.222656 554.980469 C 716.726562 554.855469 714.238281 554.667969 711.753906 554.417969 C 709.269531 554.167969 706.796875 553.855469 704.328125 553.484375 C 701.859375 553.109375 699.402344 552.675781 696.953125 552.179688 C 694.507812 551.683594 692.074219 551.125 689.65625 550.503906 C 687.238281 549.886719 684.835938 549.207031 682.449219 548.46875 C 680.066406 547.730469 677.703125 546.933594 675.355469 546.078125 C 673.011719 545.21875 670.6875 544.304688 668.390625 543.332031 C 666.089844 542.359375 663.816406 541.328125 661.570312 540.242188 C 659.320312 539.152344 657.101562 538.011719 654.914062 536.8125 C 652.722656 535.613281 650.5625 534.363281 648.433594 533.054688 C 646.304688 531.75 644.210938 530.390625 642.152344 528.980469 C 640.09375 527.566406 638.066406 526.105469 636.082031 524.59375 C 634.09375 523.082031 632.144531 521.519531 630.238281 519.910156 C 628.328125 518.296875 626.460938 516.640625 624.632812 514.9375 C 622.808594 513.234375 621.027344 511.484375 619.285156 509.691406 C 620.394531 507.070312 621.597656 504.488281 622.894531 501.953125 C 624.191406 499.417969 625.578125 496.929688 627.054688 494.496094 C 628.535156 492.0625 630.097656 489.683594 631.75 487.363281 C 633.402344 485.046875 635.136719 482.789062 636.957031 480.597656 C 638.773438 478.402344 640.667969 476.28125 642.640625 474.226562 C 644.613281 472.171875 646.660156 470.195312 648.777344 468.289062 C 650.894531 466.386719 653.078125 464.5625 655.328125 462.820312 C 657.578125 461.074219 659.890625 459.417969 662.261719 457.84375 C 664.632812 456.269531 667.0625 454.78125 669.542969 453.386719 C 672.023438 451.988281 674.550781 450.683594 677.125 449.472656 C 679.703125 448.261719 682.320312 447.148438 684.976562 446.128906 C 687.636719 445.109375 690.328125 444.1875 693.050781 443.367188 C 695.777344 442.542969 698.527344 441.824219 701.304688 441.203125 C 704.085938 440.582031 706.882812 440.0625 709.695312 439.648438 C 712.511719 439.230469 715.339844 438.921875 718.179688 438.710938 C 721.015625 438.503906 723.859375 438.398438 726.707031 438.398438 C 729.550781 438.398438 732.394531 438.503906 735.234375 438.710938 C 738.070312 438.921875 740.898438 439.230469 743.714844 439.648438 C 746.53125 440.0625 749.328125 440.582031 752.105469 441.203125 C 754.882812 441.824219 757.632812 442.542969 760.359375 443.367188 C 763.082031 444.1875 765.773438 445.109375 768.433594 446.128906 C 771.089844 447.148438 773.707031 448.261719 776.285156 449.472656 C 778.859375 450.683594 781.386719 451.988281 783.871094 453.386719 C 786.351562 454.78125 788.777344 456.269531 791.148438 457.84375 C 793.519531 459.417969 795.832031 461.074219 798.082031 462.820312 C 800.332031 464.5625 802.519531 466.386719 804.636719 468.289062 C 806.753906 470.195312 808.796875 472.171875 810.769531 474.226562 C 812.742188 476.28125 814.636719 478.402344 816.453125 480.597656 C 818.273438 482.789062 820.007812 485.046875 821.660156 487.363281 C 823.3125 489.683594 824.875 492.0625 826.355469 494.496094 C 827.832031 496.929688 829.222656 499.417969 830.515625 501.953125 C 831.8125 504.488281 833.015625 507.070312 834.125 509.691406 Z M 834.125 509.691406 " fill-opacity="1" fill-rule="nonzero"/><path fill="#ff9561" d="M 726.648438 405.347656 C 727.335938 405.347656 728.023438 405.378906 728.710938 405.449219 C 729.398438 405.515625 730.078125 405.617188 730.757812 405.75 C 731.433594 405.886719 732.101562 406.054688 732.761719 406.253906 C 733.421875 406.453125 734.070312 406.6875 734.707031 406.949219 C 735.347656 407.214844 735.96875 407.511719 736.578125 407.835938 C 737.1875 408.160156 737.777344 408.515625 738.351562 408.898438 C 738.925781 409.285156 739.480469 409.695312 740.011719 410.132812 C 740.546875 410.570312 741.054688 411.035156 741.542969 411.523438 C 742.03125 412.011719 742.496094 412.523438 742.933594 413.054688 C 743.371094 413.589844 743.78125 414.144531 744.164062 414.71875 C 744.546875 415.292969 744.902344 415.882812 745.226562 416.492188 C 745.550781 417.101562 745.847656 417.726562 746.109375 418.363281 C 746.375 419.003906 746.605469 419.652344 746.808594 420.3125 C 747.007812 420.972656 747.175781 421.644531 747.308594 422.320312 C 747.445312 422.996094 747.546875 423.679688 747.613281 424.367188 C 747.679688 425.054688 747.714844 425.742188 747.714844 426.433594 L 747.714844 445.035156 C 747.714844 445.726562 747.679688 446.414062 747.613281 447.101562 C 747.546875 447.789062 747.445312 448.472656 747.308594 449.148438 C 747.175781 449.828125 747.007812 450.496094 746.808594 451.15625 C 746.605469 451.816406 746.375 452.46875 746.109375 453.105469 C 745.847656 453.742188 745.550781 454.367188 745.226562 454.976562 C 744.902344 455.585938 744.546875 456.175781 744.164062 456.75 C 743.78125 457.324219 743.371094 457.878906 742.933594 458.414062 C 742.496094 458.945312 742.03125 459.457031 741.542969 459.945312 C 741.054688 460.433594 740.546875 460.898438 740.011719 461.335938 C 739.480469 461.773438 738.925781 462.183594 738.351562 462.570312 C 737.777344 462.953125 737.1875 463.308594 736.578125 463.632812 C 735.96875 463.957031 735.347656 464.253906 734.707031 464.519531 C 734.070312 464.78125 733.421875 465.015625 732.761719 465.214844 C 732.101562 465.414062 731.433594 465.582031 730.757812 465.71875 C 730.078125 465.851562 729.398438 465.953125 728.710938 466.023438 C 728.023438 466.089844 727.335938 466.125 726.648438 466.125 C 725.957031 466.125 725.269531 466.089844 724.582031 466.023438 C 723.894531 465.953125 723.214844 465.851562 722.535156 465.71875 C 721.859375 465.582031 721.191406 465.414062 720.53125 465.214844 C 719.871094 465.015625 719.222656 464.78125 718.585938 464.519531 C 717.945312 464.253906 717.324219 463.957031 716.714844 463.632812 C 716.105469 463.308594 715.515625 462.953125 714.941406 462.570312 C 714.367188 462.183594 713.816406 461.773438 713.28125 461.335938 C 712.746094 460.898438 712.238281 460.433594 711.75 459.945312 C 711.261719 459.457031 710.796875 458.945312 710.359375 458.414062 C 709.921875 457.878906 709.511719 457.324219 709.128906 456.75 C 708.746094 456.175781 708.390625 455.585938 708.066406 454.976562 C 707.742188 454.367188 707.445312 453.742188 707.183594 453.105469 C 706.917969 452.46875 706.6875 451.816406 706.484375 451.15625 C 706.285156 450.496094 706.117188 449.828125 705.984375 449.148438 C 705.847656 448.472656 705.746094 447.789062 705.679688 447.101562 C 705.613281 446.414062 705.578125 445.726562 705.578125 445.035156 L 705.578125 426.433594 C 705.578125 425.742188 705.613281 425.054688 705.679688 424.367188 C 705.746094 423.679688 705.847656 422.996094 705.984375 422.320312 C 706.117188 421.644531 706.285156 420.972656 706.484375 420.3125 C 706.6875 419.652344 706.917969 419.003906 707.183594 418.363281 C 707.445312 417.726562 707.742188 417.101562 708.066406 416.492188 C 708.390625 415.882812 708.746094 415.292969 709.128906 414.71875 C 709.511719 414.144531 709.921875 413.589844 710.359375 413.054688 C 710.796875 412.523438 711.261719 412.011719 711.75 411.523438 C 712.238281 411.035156 712.746094 410.570312 713.28125 410.132812 C 713.816406 409.695312 714.367188 409.285156 714.941406 408.898438 C 715.515625 408.515625 716.105469 408.160156 716.714844 407.835938 C 717.324219 407.511719 717.945312 407.214844 718.585938 406.949219 C 719.222656 406.6875 719.871094 406.453125 720.53125 406.253906 C 721.191406 406.054688 721.859375 405.886719 722.535156 405.75 C 723.214844 405.617188 723.894531 405.515625 724.582031 405.449219 C 725.269531 405.378906 725.957031 405.347656 726.648438 405.347656 Z M 726.648438 405.347656 " fill-opacity="1" fill-rule="nonzero"/><path fill="#002c5c" d="M 681.28125 405.347656 C 642.769531 386.601562 645.640625 329.976562 672.152344 322.167969 C 675.316406 298.09375 743.671875 284.367188 777.425781 305.484375 C 811.179688 326.601562 801.054688 383.617188 774.46875 389.316406 " fill-opacity="1" fill-rule="nonzero"/><path fill="#ff9561" d="M 688.246094 392.066406 C 688.246094 392.941406 688.160156 393.804688 687.992188 394.664062 C 687.820312 395.519531 687.570312 396.351562 687.234375 397.15625 C 686.902344 397.964844 686.492188 398.730469 686.007812 399.457031 C 685.523438 400.183594 684.972656 400.855469 684.355469 401.472656 C 683.738281 402.089844 683.066406 402.640625 682.34375 403.125 C 681.617188 403.609375 680.851562 404.019531 680.042969 404.355469 C 679.238281 404.6875 678.40625 404.941406 677.550781 405.113281 C 676.695312 405.28125 675.832031 405.367188 674.960938 405.367188 C 674.089844 405.367188 673.222656 405.28125 672.367188 405.113281 C 671.511719 404.941406 670.683594 404.6875 669.875 404.355469 C 669.070312 404.019531 668.304688 403.609375 667.578125 403.125 C 666.855469 402.640625 666.183594 402.089844 665.566406 401.472656 C 664.949219 400.855469 664.398438 400.183594 663.914062 399.457031 C 663.429688 398.730469 663.019531 397.964844 662.6875 397.15625 C 662.351562 396.351562 662.101562 395.519531 661.929688 394.664062 C 661.761719 393.804688 661.675781 392.941406 661.675781 392.066406 C 661.675781 391.195312 661.761719 390.332031 661.929688 389.472656 C 662.101562 388.617188 662.351562 387.785156 662.6875 386.980469 C 663.019531 386.171875 663.429688 385.40625 663.914062 384.679688 C 664.398438 383.953125 664.949219 383.28125 665.566406 382.664062 C 666.183594 382.046875 666.855469 381.496094 667.578125 381.011719 C 668.304688 380.527344 669.070312 380.117188 669.875 379.78125 C 670.683594 379.449219 671.511719 379.195312 672.367188 379.023438 C 673.222656 378.855469 674.089844 378.769531 674.960938 378.769531 C 675.832031 378.769531 676.695312 378.855469 677.550781 379.023438 C 678.40625 379.195312 679.238281 379.449219 680.042969 379.78125 C 680.851562 380.117188 681.617188 380.527344 682.34375 381.011719 C 683.066406 381.496094 683.738281 382.046875 684.355469 382.664062 C 684.972656 383.28125 685.523438 383.953125 686.007812 384.679688 C 686.492188 385.40625 686.902344 386.171875 687.234375 386.980469 C 687.570312 387.785156 687.820312 388.617188 687.992188 389.472656 C 688.160156 390.332031 688.246094 391.195312 688.246094 392.066406 Z M 688.246094 392.066406 " fill-opacity="1" fill-rule="nonzero"/><path fill="#ff9561" d="M 790.382812 392.066406 C 790.382812 392.941406 790.296875 393.804688 790.125 394.664062 C 789.957031 395.519531 789.703125 396.351562 789.371094 397.15625 C 789.035156 397.964844 788.628906 398.730469 788.140625 399.457031 C 787.65625 400.183594 787.105469 400.855469 786.488281 401.472656 C 785.875 402.089844 785.203125 402.640625 784.476562 403.125 C 783.75 403.609375 782.984375 404.019531 782.179688 404.355469 C 781.375 404.6875 780.542969 404.941406 779.6875 405.113281 C 778.832031 405.28125 777.96875 405.367188 777.097656 405.367188 C 776.222656 405.367188 775.359375 405.28125 774.503906 405.113281 C 773.648438 404.941406 772.816406 404.6875 772.011719 404.355469 C 771.207031 404.019531 770.441406 403.609375 769.714844 403.125 C 768.988281 402.640625 768.316406 402.089844 767.703125 401.472656 C 767.085938 400.855469 766.535156 400.183594 766.050781 399.457031 C 765.5625 398.730469 765.15625 397.964844 764.820312 397.15625 C 764.488281 396.351562 764.234375 395.519531 764.066406 394.664062 C 763.894531 393.804688 763.808594 392.941406 763.808594 392.066406 C 763.808594 391.195312 763.894531 390.332031 764.066406 389.472656 C 764.234375 388.617188 764.488281 387.785156 764.820312 386.980469 C 765.15625 386.171875 765.5625 385.40625 766.050781 384.679688 C 766.535156 383.953125 767.085938 383.28125 767.703125 382.664062 C 768.316406 382.046875 768.988281 381.496094 769.714844 381.011719 C 770.441406 380.527344 771.207031 380.117188 772.011719 379.78125 C 772.816406 379.449219 773.648438 379.195312 774.503906 379.023438 C 775.359375 378.855469 776.222656 378.769531 777.097656 378.769531 C 777.96875 378.769531 778.832031 378.855469 779.6875 379.023438 C 780.542969 379.195312 781.375 379.449219 782.179688 379.78125 C 782.984375 380.117188 783.75 380.527344 784.476562 381.011719 C 785.203125 381.496094 785.875 382.046875 786.488281 382.664062 C 787.105469 383.28125 787.65625 383.953125 788.140625 384.679688 C 788.628906 385.40625 789.035156 386.171875 789.371094 386.980469 C 789.703125 387.785156 789.957031 388.617188 790.125 389.472656 C 790.296875 390.332031 790.382812 391.195312 790.382812 392.066406 Z M 790.382812 392.066406 " fill-opacity="1" fill-rule="nonzero"/><path fill="#ffc9ac" d="M 726.703125 321.417969 C 728.398438 321.417969 730.089844 321.503906 731.777344 321.667969 C 733.460938 321.835938 735.136719 322.085938 736.800781 322.414062 C 738.460938 322.746094 740.101562 323.15625 741.726562 323.648438 C 743.347656 324.140625 744.941406 324.714844 746.507812 325.363281 C 748.070312 326.011719 749.601562 326.734375 751.097656 327.535156 C 752.589844 328.335938 754.042969 329.207031 755.453125 330.148438 C 756.859375 331.089844 758.21875 332.101562 759.53125 333.175781 C 760.839844 334.253906 762.09375 335.390625 763.292969 336.589844 C 764.492188 337.789062 765.628906 339.046875 766.703125 340.355469 C 767.777344 341.667969 768.785156 343.027344 769.726562 344.4375 C 770.667969 345.847656 771.539062 347.304688 772.339844 348.800781 C 773.136719 350.292969 773.859375 351.828125 774.507812 353.394531 C 775.15625 354.960938 775.726562 356.554688 776.21875 358.179688 C 776.710938 359.804688 777.125 361.445312 777.453125 363.109375 C 777.785156 364.773438 778.03125 366.449219 778.199219 368.136719 C 778.367188 369.828125 778.449219 371.519531 778.449219 373.214844 L 778.449219 386.601562 C 778.449219 388.300781 778.367188 389.992188 778.199219 391.679688 C 778.03125 393.367188 777.785156 395.042969 777.453125 396.707031 C 777.125 398.371094 776.710938 400.015625 776.21875 401.636719 C 775.726562 403.261719 775.15625 404.855469 774.507812 406.425781 C 773.859375 407.992188 773.136719 409.523438 772.339844 411.019531 C 771.539062 412.515625 770.667969 413.96875 769.726562 415.378906 C 768.785156 416.789062 767.777344 418.152344 766.703125 419.460938 C 765.628906 420.773438 764.492188 422.027344 763.292969 423.226562 C 762.09375 424.425781 760.839844 425.566406 759.53125 426.640625 C 758.21875 427.71875 756.859375 428.726562 755.453125 429.667969 C 754.042969 430.613281 752.589844 431.484375 751.097656 432.28125 C 749.601562 433.082031 748.070312 433.804688 746.507812 434.457031 C 744.941406 435.105469 743.347656 435.675781 741.726562 436.167969 C 740.101562 436.660156 738.460938 437.074219 736.800781 437.402344 C 735.136719 437.734375 733.460938 437.984375 731.777344 438.148438 C 730.089844 438.316406 728.398438 438.398438 726.703125 438.398438 C 725.011719 438.398438 723.320312 438.316406 721.632812 438.148438 C 719.945312 437.984375 718.273438 437.734375 716.609375 437.402344 C 714.949219 437.074219 713.304688 436.660156 711.683594 436.167969 C 710.0625 435.675781 708.46875 435.105469 706.902344 434.457031 C 705.335938 433.804688 703.808594 433.082031 702.3125 432.28125 C 700.816406 431.484375 699.367188 430.613281 697.957031 429.667969 C 696.546875 428.726562 695.1875 427.71875 693.878906 426.640625 C 692.570312 425.566406 691.3125 424.425781 690.117188 423.226562 C 688.917969 422.027344 687.78125 420.773438 686.707031 419.460938 C 685.632812 418.152344 684.621094 416.789062 683.679688 415.378906 C 682.738281 413.96875 681.871094 412.515625 681.070312 411.019531 C 680.273438 409.523438 679.546875 407.992188 678.898438 406.425781 C 678.25 404.855469 677.679688 403.261719 677.1875 401.636719 C 676.695312 400.015625 676.285156 398.371094 675.953125 396.707031 C 675.625 395.042969 675.375 393.367188 675.210938 391.679688 C 675.042969 389.992188 674.960938 388.300781 674.960938 386.601562 L 674.960938 373.214844 C 674.960938 371.519531 675.042969 369.828125 675.210938 368.136719 C 675.375 366.449219 675.625 364.773438 675.953125 363.109375 C 676.285156 361.445312 676.695312 359.804688 677.1875 358.179688 C 677.679688 356.554688 678.25 354.960938 678.898438 353.394531 C 679.546875 351.828125 680.273438 350.292969 681.070312 348.800781 C 681.871094 347.304688 682.738281 345.847656 683.679688 344.4375 C 684.621094 343.027344 685.632812 341.667969 686.707031 340.355469 C 687.78125 339.046875 688.917969 337.789062 690.117188 336.589844 C 691.3125 335.390625 692.570312 334.253906 693.878906 333.175781 C 695.1875 332.101562 696.546875 331.089844 697.957031 330.148438 C 699.367188 329.207031 700.816406 328.335938 702.3125 327.535156 C 703.808594 326.734375 705.335938 326.011719 706.902344 325.363281 C 708.46875 324.714844 710.0625 324.140625 711.683594 323.648438 C 713.304688 323.15625 714.949219 322.746094 716.609375 322.414062 C 718.273438 322.085938 719.945312 321.835938 721.632812 321.667969 C 723.320312 321.503906 725.011719 321.417969 726.703125 321.417969 Z M 726.703125 321.417969 " fill-opacity="1" fill-rule="nonzero"/><path fill="#002c5c" d="M 674.960938 386.601562 C 693.648438 386.601562 697.863281 351.621094 697.863281 351.621094 C 697.863281 351.621094 700.769531 377.640625 778.449219 373.214844 C 778.449219 373.214844 784.164062 337.550781 764.488281 324.890625 C 744.808594 312.226562 693.929688 320.390625 678.46875 336.707031 C 663.007812 353.027344 674.960938 386.601562 674.960938 386.601562 Z M 674.960938 386.601562 " fill-opacity="1" fill-rule="nonzero"/></svg>